<?xml version="1.0" encoding="UTF-8"?>
<svg width="14px" height="19px" viewBox="0 0 14 19" version="1.1" xmlns="http://www.w3.org/2000/svg" xmlns:xlink="http://www.w3.org/1999/xlink">
    <title>lambda</title>
    <g id="Page-1" stroke="none" stroke-width="1" fill="none" fill-rule="evenodd">
        <g id="positive-icons" transform="translate(-117.000000, -77.000000)" fill="#FFFFFF" fill-rule="nonzero">
            <g id="lambda" transform="translate(117.375000, 77.984375)">
                <path d="M11.1328125,17.109375 C11.7070312,17.109375 12.1054688,17.0507812 12.421875,16.96875 L12.3164062,14.9765625 C12.1757812,15.0234375 11.90625,15.0820312 11.6835938,15.0820312 C10.8984375,15.0820312 10.5351562,14.7890625 10.171875,13.7578125 L6.62109375,3.65625 C5.56640625,0.64453125 4.79296875,0 2.68359375,0 C2.30859375,0 1.81640625,0.05859375 1.4296875,0.15234375 L1.4296875,2.14453125 C1.6171875,2.0859375 1.96875,2.0390625 2.21484375,2.0390625 C3.375,2.0390625 3.65625,2.21484375 4.3359375,4.01953125 L4.8515625,5.4375 L0,17.015625 L2.54296875,17.015625 L5.84765625,8.4375 L5.89453125,8.4375 L7.9921875,14.5664062 C8.68359375,16.5820312 9.48046875,17.109375 11.1328125,17.109375 Z" id="λ"></path>
            </g>
        </g>
    </g>
</svg>